PathFileType	4	(X/Y/Z)	C:\Users\Admin\Desktop\Capture Files\05302019 Reflex Trials\StaticTrial_2-Unnamed.trc
DataRate	CameraRate	NumFrames	NumMarkers	Units	OrigDataRate	OrigDataStartFrame	OrigNumFrames
300.00	300.00	      12	0	mm	300.00	1552	      2482
Frame#	Time	
		

1552	5.170	579.26703	-626.02972	918.84729	814.43909	-769.17114	1023.02100	497.32388	-501.53061	875.62201	893.42133	-728.83063	1114.15344	430.66187	-313.70990	457.21503	180.04686	-512.44080	612.87714	157.02338	-528.04132	411.36179				291.63641	-499.78299	731.06445				183.16850	-589.10120	726.40710	370.21848	-427.31949	716.20581	498.99548	-366.34851	740.67145				427.43225	-328.74826	641.50330	
1553	5.173	579.28754	-626.05499	918.85480	814.47437	-769.20959	1023.04535	497.34824	-501.54761	875.63763	893.33160	-728.77911	1114.18652	430.65054	-313.71680	457.22415	180.07301	-512.44714	612.88043	157.02032	-528.03473	411.36148				291.63226	-499.75836	731.10205				183.18280	-589.09967	726.43274	370.23932	-427.32465	716.20465	498.98538	-366.34943	740.67023				427.43927	-328.75937	641.50171	
1554	5.177	579.28619	-626.04303	918.88611	814.41980	-769.17065	1023.06183	497.35822	-501.55188	875.63226	893.36884	-728.82330	1114.20776	430.66855	-313.75311	457.22906	180.07327	-512.45020	612.88025	157.06110	-528.02789	411.39355				291.63397	-499.76974	731.09033				183.19563	-589.10132	726.42169	370.22684	-427.30133	716.22925	498.99631	-366.36777	740.68835				427.44345	-328.77194	641.50214	
1555	5.180	579.30029	-626.07178	918.86694	814.47876	-769.22937	1023.08337	497.35516	-501.54526	875.65948	893.35638	-728.79053	1114.24744	430.70374	-313.75259	457.24835	180.09155	-512.45477	612.90039	157.06824	-528.01453	411.37650				290.76788	-499.07355	731.68634				183.18941	-589.07880	726.43567	370.23212	-427.33002	716.21747	498.98441	-366.34241	740.69403				427.45691	-328.78912	641.51190	
1556	5.183	579.32532	-626.06750	918.87750	814.48804	-769.20233	1023.11298	497.36472	-501.55792	875.66235	893.33362	-728.79431	1114.27979	430.73438	-313.77365	457.24911	180.11478	-512.45068	612.90631	157.08369	-528.00690	411.42535				291.66898	-499.78696	731.12787				183.19624	-589.06787	726.44189	370.23877	-427.32089	716.24060	499.00500	-366.36908	740.70905				427.46439	-328.79871	641.53149	
1557	5.187	579.30554	-626.08234	918.87775	814.48511	-769.27625	1023.16125	497.38736	-501.57962	875.67169	893.39648	-728.90680	1114.31665	430.73645	-313.80042	457.26880	180.12230	-512.44958	612.91724	157.09520	-528.01404	411.43149				291.67175	-499.76965	731.15015				183.21802	-589.08588	726.47534	370.24936	-427.32578	716.26080	498.99744	-366.36615	740.71552				427.47565	-328.79498	641.54822	
1558	5.190	579.30975	-626.10999	918.88574	814.49384	-769.24872	1023.15179	497.38763	-501.57642	875.68585	893.28662	-728.77765	1114.30066	430.74982	-313.80859	457.25223	180.15691	-512.45264	612.92389	157.12880	-528.02209	411.43884				291.69022	-499.77011	731.16412				183.23143	-589.08453	726.47449	370.24957	-427.33258	716.27173	499.01215	-366.35748	740.71588				427.48260	-328.79596	641.55444	
1559	5.193	579.31177	-626.11731	918.87646	814.45435	-769.22351	1023.16742	497.41074	-501.58099	875.68372	893.37506	-728.83221	1114.34546	430.74963	-313.80872	457.28827	180.16359	-512.45898	612.95319	157.14146	-528.01007	411.46744				291.68573	-499.77148	731.16956				183.24763	-589.07080	726.47882	370.25848	-427.31717	716.27740	499.02692	-366.36850	740.73645				427.48257	-328.79767	641.56134	
1560	5.197	579.31610	-626.12109	918.87897	814.48621	-769.26337	1023.16144	497.41760	-501.58395	875.68256	893.25647	-728.75909	1114.35095	430.76749	-313.82324	457.28271	180.20544	-512.42749	612.93848	157.16241	-527.99127	411.46149				291.70511	-499.74927	731.20160				183.25064	-589.06494	726.51587	370.27130	-427.31064	716.30359	499.03574	-366.37650	740.75000				427.50482	-328.81229	641.57050	
1561	5.200	579.38885	-626.12054	918.87628	814.54633	-769.31915	1023.19623	497.44580	-501.60236	875.68884	893.28583	-728.77643	1114.36133	430.80869	-313.83078	457.31049	180.19229	-512.44684	612.96283	157.18628	-528.01318	411.47177				291.72192	-499.75269	731.20166				183.27548	-589.08734	726.50763	370.28336	-427.32330	716.30920	499.03894	-366.36664	740.77277				427.50873	-328.81714	641.57660	
1562	5.203	579.39679	-626.14734	918.86731	814.50763	-769.26196	1023.16870	497.43970	-501.59103	875.69763	893.27820	-728.77966	1114.38464	430.81329	-313.85983	457.31189	180.22060	-512.43329	612.97894	157.20050	-528.00714	411.50949				291.75241	-499.80350	731.22205				183.26758	-589.05176	726.51422	370.29019	-427.30597	716.33759	499.04984	-366.36676	740.77997				427.52713	-328.82288	641.57990	
1563	5.207	579.34485	-626.16675	918.85706	814.50964	-769.25580	1023.18091	497.47012	-501.61813	875.69647	893.30676	-728.74866	1114.38135	430.82953	-313.83780	457.33737	180.22874	-512.42688	612.99939	157.22469	-527.99573	411.51392				290.87012	-499.07605	731.80743				183.29495	-589.06354	726.53949	370.29279	-427.31039	716.35767	499.06116	-366.37506	740.79431				427.54233	-328.82898	641.61401	
